<?xml version="1.0" encoding="UTF-8"?>
<svg xmlns="http://www.w3.org/2000/svg" xmlns:xlink="http://www.w3.org/1999/xlink" width="960pt" height="540.000001pt" viewBox="0 0 960 540.000001" version="1.2">
<defs>
<clipPath id="clip1">
  <path d="M 379 85 L 565.285156 85 L 565.285156 300.496094 L 379 300.496094 Z M 379 85 "/>
</clipPath>
<clipPath id="clip2">
  <path d="M 301.773438 127 L 433 127 L 433 258 L 301.773438 258 Z M 301.773438 127 "/>
</clipPath>
<clipPath id="clip3">
  <path d="M 335.234375 143.703125 L 401.859375 143.703125 L 401.859375 241.773438 L 335.234375 241.773438 Z M 335.234375 143.703125 "/>
</clipPath>
<clipPath id="clip4">
  <path d="M 490 184 L 504 184 L 504 208 L 490 208 Z M 490 184 "/>
</clipPath>
<clipPath id="clip5">
  <path d="M 413.179688 208.515625 L 508.5625 168.828125 L 524.953125 208.226562 L 429.574219 247.914062 Z M 413.179688 208.515625 "/>
</clipPath>
<clipPath id="clip6">
  <path d="M 413.179688 208.515625 L 508.5625 168.828125 L 524.953125 208.226562 L 429.574219 247.914062 Z M 413.179688 208.515625 "/>
</clipPath>
<clipPath id="clip7">
  <path d="M 413.179688 208.515625 L 508.292969 168.941406 L 524.652344 208.261719 L 429.542969 247.839844 Z M 413.179688 208.515625 "/>
</clipPath>
<clipPath id="clip8">
  <path d="M 459 202 L 480 202 L 480 213 L 459 213 Z M 459 202 "/>
</clipPath>
<clipPath id="clip9">
  <path d="M 413.179688 208.515625 L 508.5625 168.828125 L 524.953125 208.226562 L 429.574219 247.914062 Z M 413.179688 208.515625 "/>
</clipPath>
<clipPath id="clip10">
  <path d="M 413.179688 208.515625 L 508.5625 168.828125 L 524.953125 208.226562 L 429.574219 247.914062 Z M 413.179688 208.515625 "/>
</clipPath>
<clipPath id="clip11">
  <path d="M 413.179688 208.515625 L 508.292969 168.941406 L 524.652344 208.261719 L 429.542969 247.839844 Z M 413.179688 208.515625 "/>
</clipPath>
<clipPath id="clip12">
  <path d="M 426 208 L 449 208 L 449 246 L 426 246 Z M 426 208 "/>
</clipPath>
<clipPath id="clip13">
  <path d="M 413.179688 208.515625 L 508.5625 168.828125 L 524.953125 208.226562 L 429.574219 247.914062 Z M 413.179688 208.515625 "/>
</clipPath>
<clipPath id="clip14">
  <path d="M 413.179688 208.515625 L 508.5625 168.828125 L 524.953125 208.226562 L 429.574219 247.914062 Z M 413.179688 208.515625 "/>
</clipPath>
<clipPath id="clip15">
  <path d="M 413.179688 208.515625 L 508.292969 168.941406 L 524.652344 208.261719 L 429.542969 247.839844 Z M 413.179688 208.515625 "/>
</clipPath>
<clipPath id="clip16">
  <path d="M 444 197 L 461 197 L 461 213 L 444 213 Z M 444 197 "/>
</clipPath>
<clipPath id="clip17">
  <path d="M 413.179688 208.515625 L 508.5625 168.828125 L 524.953125 208.226562 L 429.574219 247.914062 Z M 413.179688 208.515625 "/>
</clipPath>
<clipPath id="clip18">
  <path d="M 413.179688 208.515625 L 508.5625 168.828125 L 524.953125 208.226562 L 429.574219 247.914062 Z M 413.179688 208.515625 "/>
</clipPath>
<clipPath id="clip19">
  <path d="M 413.179688 208.515625 L 508.292969 168.941406 L 524.652344 208.261719 L 429.542969 247.839844 Z M 413.179688 208.515625 "/>
</clipPath>
<clipPath id="clip20">
  <path d="M 478 203 L 494 203 L 494 219 L 478 219 Z M 478 203 "/>
</clipPath>
<clipPath id="clip21">
  <path d="M 413.179688 208.515625 L 508.5625 168.828125 L 524.953125 208.226562 L 429.574219 247.914062 Z M 413.179688 208.515625 "/>
</clipPath>
<clipPath id="clip22">
  <path d="M 413.179688 208.515625 L 508.5625 168.828125 L 524.953125 208.226562 L 429.574219 247.914062 Z M 413.179688 208.515625 "/>
</clipPath>
<clipPath id="clip23">
  <path d="M 413.179688 208.515625 L 508.292969 168.941406 L 524.652344 208.261719 L 429.542969 247.839844 Z M 413.179688 208.515625 "/>
</clipPath>
<clipPath id="clip24">
  <path d="M 496 171 L 512 171 L 512 187 L 496 187 Z M 496 171 "/>
</clipPath>
<clipPath id="clip25">
  <path d="M 413.179688 208.515625 L 508.5625 168.828125 L 524.953125 208.226562 L 429.574219 247.914062 Z M 413.179688 208.515625 "/>
</clipPath>
<clipPath id="clip26">
  <path d="M 413.179688 208.515625 L 508.5625 168.828125 L 524.953125 208.226562 L 429.574219 247.914062 Z M 413.179688 208.515625 "/>
</clipPath>
<clipPath id="clip27">
  <path d="M 413.179688 208.515625 L 508.292969 168.941406 L 524.652344 208.261719 L 429.542969 247.839844 Z M 413.179688 208.515625 "/>
</clipPath>
</defs>
<g id="surface1">
<g clip-path="url(#clip1)" clip-rule="nonzero">
<path style=" stroke:none;fill-rule:nonzero;fill:rgb(8.239746%,42.349243%,86.669922%);fill-opacity:1;" d="M 565.285156 192.695312 L 379.128906 300.265625 L 379.128906 85.121094 L 472.207031 138.910156 Z M 565.285156 192.695312 "/>
</g>
<g clip-path="url(#clip2)" clip-rule="nonzero">
<path style=" stroke:none;fill-rule:nonzero;fill:rgb(32.159424%,68.238831%,89.7995%);fill-opacity:1;" d="M 432.265625 192.695312 C 432.265625 193.761719 432.238281 194.832031 432.1875 195.898438 C 432.132812 196.964844 432.054688 198.03125 431.949219 199.09375 C 431.847656 200.160156 431.714844 201.21875 431.558594 202.277344 C 431.402344 203.332031 431.21875 204.386719 431.011719 205.433594 C 430.804688 206.484375 430.570312 207.523438 430.308594 208.5625 C 430.050781 209.597656 429.765625 210.628906 429.457031 211.652344 C 429.144531 212.671875 428.8125 213.6875 428.449219 214.695312 C 428.089844 215.699219 427.707031 216.695312 427.296875 217.683594 C 426.890625 218.671875 426.457031 219.648438 426 220.613281 C 425.542969 221.582031 425.0625 222.535156 424.5625 223.476562 C 424.058594 224.421875 423.53125 225.351562 422.980469 226.265625 C 422.433594 227.183594 421.863281 228.085938 421.269531 228.972656 C 420.675781 229.863281 420.0625 230.738281 419.425781 231.59375 C 418.789062 232.453125 418.132812 233.296875 417.453125 234.121094 C 416.777344 234.949219 416.082031 235.757812 415.363281 236.546875 C 414.644531 237.339844 413.910156 238.113281 413.15625 238.871094 C 412.398438 239.625 411.625 240.363281 410.835938 241.082031 C 410.042969 241.796875 409.234375 242.496094 408.410156 243.171875 C 407.585938 243.851562 406.742188 244.507812 405.886719 245.144531 C 405.027344 245.78125 404.15625 246.398438 403.269531 246.992188 C 402.378906 247.585938 401.476562 248.15625 400.5625 248.707031 C 399.644531 249.253906 398.71875 249.78125 397.777344 250.285156 C 396.835938 250.789062 395.878906 251.269531 394.914062 251.726562 C 393.949219 252.183594 392.972656 252.617188 391.988281 253.027344 C 391 253.433594 390.003906 253.820312 389 254.179688 C 387.996094 254.539062 386.980469 254.875 385.960938 255.183594 C 384.9375 255.496094 383.910156 255.78125 382.871094 256.039062 C 381.835938 256.300781 380.796875 256.535156 379.746094 256.742188 C 378.699219 256.949219 377.648438 257.132812 376.59375 257.289062 C 375.535156 257.445312 374.476562 257.578125 373.414062 257.683594 C 372.351562 257.785156 371.289062 257.867188 370.222656 257.917969 C 369.152344 257.96875 368.085938 257.996094 367.019531 257.996094 C 365.953125 257.996094 364.882812 257.96875 363.816406 257.917969 C 362.75 257.867188 361.6875 257.785156 360.625 257.683594 C 359.5625 257.578125 358.503906 257.445312 357.445312 257.289062 C 356.390625 257.132812 355.335938 256.949219 354.289062 256.742188 C 353.242188 256.535156 352.203125 256.300781 351.164062 256.039062 C 350.128906 255.78125 349.101562 255.496094 348.078125 255.183594 C 347.058594 254.875 346.042969 254.539062 345.039062 254.179688 C 344.035156 253.820312 343.039062 253.433594 342.050781 253.027344 C 341.0625 252.617188 340.089844 252.183594 339.125 251.726562 C 338.15625 251.269531 337.203125 250.789062 336.261719 250.285156 C 335.320312 249.78125 334.390625 249.253906 333.476562 248.707031 C 332.558594 248.15625 331.660156 247.585938 330.769531 246.992188 C 329.882812 246.398438 329.011719 245.78125 328.152344 245.144531 C 327.292969 244.507812 326.453125 243.851562 325.628906 243.171875 C 324.800781 242.496094 323.996094 241.796875 323.203125 241.082031 C 322.410156 240.363281 321.640625 239.625 320.882812 238.871094 C 320.128906 238.113281 319.390625 237.339844 318.675781 236.546875 C 317.957031 235.757812 317.261719 234.949219 316.582031 234.121094 C 315.90625 233.296875 315.25 232.453125 314.613281 231.59375 C 313.976562 230.738281 313.363281 229.863281 312.769531 228.972656 C 312.175781 228.085938 311.605469 227.183594 311.054688 226.265625 C 310.507812 225.351562 309.980469 224.421875 309.476562 223.476562 C 308.972656 222.535156 308.496094 221.582031 308.039062 220.613281 C 307.582031 219.648438 307.148438 218.671875 306.738281 217.683594 C 306.332031 216.695312 305.949219 215.699219 305.585938 214.695312 C 305.226562 213.6875 304.894531 212.671875 304.582031 211.652344 C 304.273438 210.628906 303.988281 209.597656 303.730469 208.5625 C 303.46875 207.523438 303.234375 206.484375 303.027344 205.433594 C 302.820312 204.386719 302.636719 203.332031 302.480469 202.277344 C 302.324219 201.21875 302.191406 200.160156 302.085938 199.09375 C 301.984375 198.03125 301.90625 196.964844 301.851562 195.898438 C 301.800781 194.832031 301.773438 193.761719 301.773438 192.695312 C 301.773438 191.625 301.800781 190.558594 301.851562 189.492188 C 301.90625 188.421875 301.984375 187.355469 302.085938 186.292969 C 302.191406 185.230469 302.324219 184.167969 302.480469 183.113281 C 302.636719 182.054688 302.820312 181.003906 303.027344 179.953125 C 303.234375 178.90625 303.46875 177.863281 303.730469 176.828125 C 303.988281 175.789062 304.273438 174.761719 304.582031 173.738281 C 304.894531 172.714844 305.226562 171.699219 305.585938 170.695312 C 305.949219 169.6875 306.332031 168.691406 306.738281 167.703125 C 307.148438 166.71875 307.582031 165.742188 308.039062 164.773438 C 308.496094 163.808594 308.972656 162.855469 309.476562 161.910156 C 309.980469 160.96875 310.507812 160.039062 311.054688 159.121094 C 311.605469 158.207031 312.175781 157.304688 312.769531 156.414062 C 313.363281 155.527344 313.976562 154.652344 314.613281 153.792969 C 315.25 152.9375 315.90625 152.09375 316.582031 151.265625 C 317.261719 150.441406 317.957031 149.632812 318.675781 148.839844 C 319.390625 148.046875 320.128906 147.273438 320.882812 146.519531 C 321.640625 145.761719 322.410156 145.027344 323.203125 144.308594 C 323.996094 143.589844 324.800781 142.894531 325.628906 142.214844 C 326.453125 141.539062 327.292969 140.878906 328.152344 140.242188 C 329.011719 139.605469 329.882812 138.992188 330.769531 138.398438 C 331.660156 137.804688 332.558594 137.230469 333.476562 136.683594 C 334.390625 136.132812 335.320312 135.605469 336.261719 135.101562 C 337.203125 134.597656 338.15625 134.117188 339.125 133.660156 C 340.089844 133.203125 341.0625 132.773438 342.050781 132.363281 C 343.039062 131.953125 344.035156 131.570312 345.039062 131.210938 C 346.042969 130.847656 347.058594 130.515625 348.078125 130.203125 C 349.101562 129.894531 350.128906 129.609375 351.164062 129.347656 C 352.203125 129.089844 353.242188 128.855469 354.289062 128.648438 C 355.335938 128.4375 356.390625 128.253906 357.445312 128.097656 C 358.503906 127.941406 359.5625 127.8125 360.625 127.707031 C 361.6875 127.601562 362.75 127.523438 363.816406 127.472656 C 364.882812 127.417969 365.953125 127.390625 367.019531 127.390625 C 368.085938 127.390625 369.152344 127.417969 370.222656 127.472656 C 371.289062 127.523438 372.351562 127.601562 373.414062 127.707031 C 374.476562 127.8125 375.535156 127.941406 376.59375 128.097656 C 377.648438 128.253906 378.699219 128.4375 379.746094 128.648438 C 380.796875 128.855469 381.835938 129.089844 382.871094 129.347656 C 383.910156 129.609375 384.9375 129.894531 385.960938 130.203125 C 386.980469 130.515625 387.996094 130.847656 389 131.210938 C 390.003906 131.570312 391 131.953125 391.988281 132.363281 C 392.972656 132.773438 393.949219 133.203125 394.914062 133.660156 C 395.878906 134.117188 396.835938 134.597656 397.777344 135.101562 C 398.71875 135.605469 399.644531 136.132812 400.5625 136.683594 C 401.476562 137.230469 402.378906 137.804688 403.269531 138.398438 C 404.15625 138.992188 405.027344 139.605469 405.886719 140.242188 C 406.742188 140.878906 407.585938 141.539062 408.410156 142.214844 C 409.234375 142.894531 410.042969 143.589844 410.835938 144.308594 C 411.625 145.027344 412.398438 145.761719 413.15625 146.519531 C 413.910156 147.273438 414.644531 148.046875 415.363281 148.839844 C 416.082031 149.632812 416.777344 150.441406 417.453125 151.265625 C 418.132812 152.09375 418.789062 152.9375 419.425781 153.792969 C 420.0625 154.652344 420.675781 155.527344 421.269531 156.414062 C 421.863281 157.304688 422.433594 158.207031 422.980469 159.121094 C 423.53125 160.039062 424.058594 160.96875 424.5625 161.910156 C 425.0625 162.855469 425.542969 163.808594 426 164.773438 C 426.457031 165.742188 426.890625 166.71875 427.296875 167.703125 C 427.707031 168.691406 428.089844 169.6875 428.449219 170.695312 C 428.8125 171.699219 429.144531 172.714844 429.457031 173.738281 C 429.765625 174.761719 430.050781 175.789062 430.308594 176.828125 C 430.570312 177.863281 430.804688 178.90625 431.011719 179.953125 C 431.21875 181.003906 431.402344 182.054688 431.558594 183.113281 C 431.714844 184.167969 431.847656 185.230469 431.949219 186.292969 C 432.054688 187.355469 432.132812 188.421875 432.1875 189.492188 C 432.238281 190.558594 432.265625 191.625 432.265625 192.695312 Z M 432.265625 192.695312 "/>
</g>
<g clip-path="url(#clip3)" clip-rule="nonzero">
<path style=" stroke:none;fill-rule:nonzero;fill:rgb(100%,100%,100%);fill-opacity:1;" d="M 379.566406 152.96875 L 395.644531 152.96875 L 401.804688 143.703125 L 341.433594 143.703125 L 335.277344 152.96875 L 345.753906 152.96875 C 356.371094 152.96875 366.167969 153.789062 370.085938 162.675781 L 341.433594 162.675781 L 335.277344 171.941406 L 371.238281 171.941406 C 371.238281 171.960938 371.238281 171.980469 371.238281 172 C 371.238281 178.660156 365.710938 188.875 347.457031 188.875 L 338.625 188.863281 L 338.632812 197.519531 L 374.007812 241.773438 L 389.757812 241.773438 L 353.148438 195.992188 C 368.21875 195.175781 382.351562 186.746094 384.390625 171.941406 L 395.644531 171.941406 L 401.804688 162.675781 L 384.230469 162.675781 C 383.519531 159.105469 381.980469 155.652344 379.566406 152.96875 Z M 379.566406 152.96875 "/>
</g>
<g clip-path="url(#clip4)" clip-rule="nonzero">
<g clip-path="url(#clip5)" clip-rule="nonzero">
<g clip-path="url(#clip6)" clip-rule="nonzero">
<g clip-path="url(#clip7)" clip-rule="nonzero">
<path style=" stroke:none;fill-rule:nonzero;fill:rgb(0%,76.858521%,79.998779%);fill-opacity:1;" d="M 500.128906 184.996094 C 496.972656 191.484375 493.546875 198.621094 490.390625 205.109375 C 490.394531 205.113281 490.398438 205.113281 490.402344 205.117188 C 490.480469 205.167969 490.5625 205.222656 490.640625 205.289062 C 490.722656 205.355469 490.796875 205.421875 490.863281 205.492188 C 491.574219 206.160156 492.160156 206.953125 492.59375 207.820312 C 496.019531 200.78125 499.710938 193.09375 503.136719 186.058594 C 502.074219 185.910156 501.042969 185.546875 500.128906 184.996094 Z M 500.128906 184.996094 "/>
</g>
</g>
</g>
</g>
<g clip-path="url(#clip8)" clip-rule="nonzero">
<g clip-path="url(#clip9)" clip-rule="nonzero">
<g clip-path="url(#clip10)" clip-rule="nonzero">
<g clip-path="url(#clip11)" clip-rule="nonzero">
<path style=" stroke:none;fill-rule:nonzero;fill:rgb(0%,76.858521%,79.998779%);fill-opacity:1;" d="M 459.320312 202.007812 C 459.699219 203.128906 459.796875 204.316406 459.644531 205.464844 C 465.851562 207.585938 472.707031 209.972656 478.914062 212.09375 C 478.734375 211 478.785156 209.875 479.097656 208.808594 C 472.722656 206.632812 465.695312 204.183594 459.320312 202.007812 Z M 459.320312 202.007812 "/>
</g>
</g>
</g>
</g>
<g clip-path="url(#clip12)" clip-rule="nonzero">
<g clip-path="url(#clip13)" clip-rule="nonzero">
<g clip-path="url(#clip14)" clip-rule="nonzero">
<g clip-path="url(#clip15)" clip-rule="nonzero">
<path style=" stroke:none;fill-rule:nonzero;fill:rgb(0%,76.858521%,79.998779%);fill-opacity:1;" d="M 435.691406 230.34375 C 434.191406 229.953125 432.539062 230.011719 430.878906 230.601562 C 426.84375 232.03125 425.480469 236.796875 426.800781 240.519531 C 428.234375 244.566406 432.996094 245.9375 436.714844 244.617188 C 440.589844 243.246094 441.992188 238.800781 440.933594 235.15625 C 440.910156 235.007812 440.871094 234.859375 440.792969 234.699219 C 440.734375 234.539062 440.660156 234.40625 440.574219 234.285156 C 440.027344 233.28125 439.332031 232.433594 438.519531 231.777344 C 441.882812 224.875 445.375 217.648438 448.734375 210.746094 C 447.777344 210.191406 446.9375 209.433594 446.3125 208.476562 C 442.816406 215.65625 439.1875 223.164062 435.691406 230.34375 Z M 429.730469 239.300781 C 427.261719 234.164062 435.40625 230.804688 437.863281 235.917969 C 439.769531 241.289062 432.195312 244.4375 429.730469 239.300781 Z M 429.730469 239.300781 "/>
</g>
</g>
</g>
</g>
<g clip-path="url(#clip16)" clip-rule="nonzero">
<g clip-path="url(#clip17)" clip-rule="nonzero">
<g clip-path="url(#clip18)" clip-rule="nonzero">
<g clip-path="url(#clip19)" clip-rule="nonzero">
<path style=" stroke:none;fill-rule:nonzero;fill:rgb(0%,76.858521%,79.998779%);fill-opacity:1;" d="M 459.0625 200.832031 C 459.03125 200.78125 459 200.730469 458.96875 200.679688 C 458.933594 200.609375 458.894531 200.535156 458.847656 200.464844 C 456.71875 197.210938 452.425781 196.085938 448.980469 197.871094 C 445.476562 199.6875 444.121094 203.882812 445.507812 207.496094 C 445.6875 207.964844 445.917969 208.402344 446.179688 208.804688 C 446.804688 209.757812 447.640625 210.519531 448.601562 211.070312 C 450.726562 212.292969 453.445312 212.484375 455.753906 211.445312 C 458.15625 210.359375 459.644531 208.066406 459.972656 205.601562 C 460.125 204.449219 460.023438 203.261719 459.648438 202.140625 C 459.496094 201.691406 459.304688 201.253906 459.0625 200.832031 Z M 454.53125 208.511719 C 452.199219 209.734375 449.523438 208.554688 448.4375 206.277344 C 447.460938 204.226562 448.527344 201.929688 450.28125 200.757812 C 452.335938 199.382812 454.953125 200.441406 456.25 202.273438 C 457.40625 204.519531 456.902344 207.261719 454.53125 208.511719 Z M 454.53125 208.511719 "/>
</g>
</g>
</g>
</g>
<g clip-path="url(#clip20)" clip-rule="nonzero">
<g clip-path="url(#clip21)" clip-rule="nonzero">
<g clip-path="url(#clip22)" clip-rule="nonzero">
<g clip-path="url(#clip23)" clip-rule="nonzero">
<path style=" stroke:none;fill-rule:nonzero;fill:rgb(0%,76.858521%,79.998779%);fill-opacity:1;" d="M 490.773438 204.964844 C 490.695312 204.894531 490.617188 204.839844 490.535156 204.792969 C 490.53125 204.789062 490.527344 204.785156 490.523438 204.78125 C 487.152344 202.410156 482.6875 203.054688 480.054688 206.25 C 479.445312 206.988281 479.023438 207.8125 478.769531 208.671875 C 478.460938 209.742188 478.40625 210.867188 478.585938 211.957031 C 478.90625 213.914062 479.960938 215.769531 481.570312 217.007812 C 484.761719 219.46875 489.183594 218.648438 491.808594 215.839844 C 493.988281 213.503906 494.070312 210.160156 492.726562 207.492188 C 492.292969 206.625 491.707031 205.832031 490.996094 205.167969 C 490.929688 205.097656 490.859375 205.027344 490.773438 204.964844 Z M 489.484375 213.667969 C 488.175781 215.425781 485.566406 215.773438 483.746094 214.65625 C 481.632812 213.363281 481.054688 210.539062 482.367188 208.472656 C 483.800781 206.203125 486.824219 205.949219 488.859375 207.496094 C 490.722656 209.109375 490.925781 211.734375 489.484375 213.667969 Z M 489.484375 213.667969 "/>
</g>
</g>
</g>
</g>
<g clip-path="url(#clip24)" clip-rule="nonzero">
<g clip-path="url(#clip25)" clip-rule="nonzero">
<g clip-path="url(#clip26)" clip-rule="nonzero">
<g clip-path="url(#clip27)" clip-rule="nonzero">
<path style=" stroke:none;fill-rule:nonzero;fill:rgb(0%,76.858521%,79.998779%);fill-opacity:1;" d="M 510.914062 175.707031 C 509.277344 172.066406 505.019531 170.574219 501.386719 171.832031 C 501.304688 171.855469 501.222656 171.882812 501.140625 171.917969 C 501.054688 171.953125 500.976562 171.992188 500.90625 172.03125 C 497.316406 173.777344 495.714844 177.710938 496.9375 181.523438 C 497.472656 183.1875 498.59375 184.476562 499.996094 185.324219 C 500.90625 185.875 501.9375 186.234375 503.003906 186.382812 C 504.546875 186.601562 506.164062 186.378906 507.582031 185.644531 C 511.171875 183.78125 512.546875 179.347656 510.914062 175.707031 Z M 506.28125 182.753906 C 503.886719 184.355469 500.796875 182.726562 499.867188 180.300781 C 499.035156 178.132812 500.363281 175.75 502.359375 174.851562 C 504.496094 174.035156 506.914062 174.855469 507.984375 176.925781 C 509.09375 179.070312 508.191406 181.472656 506.28125 182.753906 Z M 506.28125 182.753906 "/>
</g>
</g>
</g>
</g>
</g>
</svg>
